<svg width="36" height="36" viewBox="0 0 36 36" fill="none" xmlns="http://www.w3.org/2000/svg">
<circle cx="18" cy="18" r="16" stroke="#FB2576" stroke-width="3"/>
<path d="M13.7298 11.4545V26H10.6545V14.3736H10.5692L7.23828 16.4616V13.7344L10.8391 11.4545H13.7298ZM22.8899 26.3196C21.6683 26.3149 20.6172 26.0142 19.7365 25.4176C18.8606 24.821 18.1858 23.9569 17.7124 22.8253C17.2436 21.6937 17.0116 20.3324 17.0163 18.7415C17.0163 17.1553 17.2507 15.8035 17.7195 14.6861C18.1929 13.5687 18.8677 12.7187 19.7436 12.1364C20.6243 11.5492 21.6731 11.2557 22.8899 11.2557C24.1068 11.2557 25.1532 11.5492 26.0291 12.1364C26.9098 12.7235 27.5869 13.5758 28.0604 14.6932C28.5339 15.8059 28.7682 17.1553 28.7635 18.7415C28.7635 20.3371 28.5268 21.7008 28.0533 22.8324C27.5845 23.964 26.9122 24.8281 26.0362 25.4247C25.1603 26.0213 24.1115 26.3196 22.8899 26.3196ZM22.8899 23.7699C23.7232 23.7699 24.3885 23.3509 24.8857 22.5128C25.3828 21.6747 25.629 20.4176 25.6243 18.7415C25.6243 17.6383 25.5107 16.7197 25.2834 15.9858C25.0608 15.2519 24.7436 14.7003 24.3317 14.331C23.9245 13.9616 23.4439 13.777 22.8899 13.777C22.0613 13.777 21.3984 14.1913 20.9013 15.0199C20.4041 15.8485 20.1532 17.089 20.1484 18.7415C20.1484 19.8589 20.2597 20.7917 20.4822 21.5398C20.7095 22.2831 21.0291 22.8419 21.4411 23.2159C21.853 23.5852 22.3359 23.7699 22.8899 23.7699Z" fill="#FB2576"/>
</svg>
