<svg width="36" height="36" viewBox="0 0 36 36" fill="none" xmlns="http://www.w3.org/2000/svg">
<circle cx="18" cy="18" r="16" stroke="#FB2576" stroke-width="3"/>
<path d="M17.9636 26.1989C16.903 26.1989 15.9584 26.0166 15.1298 25.652C14.3059 25.2827 13.6549 24.776 13.1767 24.1321C12.7032 23.4834 12.4593 22.7353 12.4451 21.8878H15.5417C15.5607 22.2429 15.6767 22.5554 15.8897 22.8253C16.1075 23.0904 16.3964 23.2964 16.7562 23.4432C17.1161 23.59 17.5209 23.6634 17.9707 23.6634C18.4395 23.6634 18.8538 23.5805 19.2136 23.4148C19.5734 23.2491 19.8552 23.0194 20.0588 22.7259C20.2624 22.4323 20.3642 22.0937 20.3642 21.7102C20.3642 21.322 20.2553 20.9787 20.0375 20.6804C19.8244 20.3774 19.5166 20.1406 19.1142 19.9702C18.7164 19.7997 18.243 19.7145 17.6937 19.7145H16.3372V17.456H17.6937C18.1577 17.456 18.5673 17.3755 18.9224 17.2145C19.2823 17.0535 19.5616 16.831 19.7605 16.5469C19.9593 16.258 20.0588 15.9219 20.0588 15.5384C20.0588 15.1738 19.9712 14.8542 19.796 14.5795C19.6255 14.3002 19.3841 14.0824 19.0716 13.9261C18.7638 13.7699 18.4039 13.6918 17.992 13.6918C17.5753 13.6918 17.1942 13.7675 16.8485 13.919C16.5029 14.0658 16.2259 14.2765 16.0176 14.5511C15.8092 14.8258 15.698 15.1477 15.6838 15.517H12.7363C12.7505 14.679 12.9896 13.9403 13.4537 13.3011C13.9177 12.6619 14.5427 12.1624 15.3287 11.8026C16.1194 11.438 17.0119 11.2557 18.0062 11.2557C19.01 11.2557 19.8883 11.438 20.6412 11.8026C21.394 12.1671 21.9788 12.6596 22.3954 13.2798C22.8168 13.8954 23.0252 14.5866 23.0204 15.3537C23.0252 16.1681 22.7718 16.8475 22.2605 17.392C21.7538 17.9366 21.0933 18.2822 20.2789 18.429V18.5426C21.349 18.6799 22.1634 19.0516 22.7221 19.6577C23.2856 20.259 23.5649 21.0118 23.5602 21.9162C23.5649 22.7448 23.3258 23.4811 22.8429 24.125C22.3646 24.7689 21.7041 25.2756 20.8613 25.6449C20.0185 26.0142 19.0526 26.1989 17.9636 26.1989Z" fill="#FB2576"/>
</svg>
