<svg width="36" height="36" viewBox="0 0 36 36" fill="none" xmlns="http://www.w3.org/2000/svg">
<circle cx="18" cy="18" r="16" stroke="#FB2576" stroke-width="3"/>
<path d="M18.0462 26.1989C17.0424 26.1989 16.1475 26.0142 15.3615 25.6449C14.5803 25.2756 13.96 24.7666 13.5007 24.1179C13.0414 23.4692 12.8023 22.7259 12.7834 21.8878H15.7663C15.7995 22.4512 16.0362 22.9081 16.4766 23.2585C16.9169 23.6089 17.4401 23.7841 18.0462 23.7841C18.5291 23.7841 18.9553 23.6776 19.3246 23.4645C19.6986 23.2467 19.9898 22.946 20.1982 22.5625C20.4112 22.1742 20.5178 21.7292 20.5178 21.2273C20.5178 20.7159 20.4089 20.2661 20.1911 19.8778C19.978 19.4896 19.6821 19.1866 19.3033 18.9688C18.9245 18.7509 18.4912 18.6397 18.0036 18.6349C17.5774 18.6349 17.1631 18.7225 16.7607 18.8977C16.3629 19.0729 16.0528 19.312 15.8303 19.6151L13.0959 19.125L13.7848 11.4545H22.6768V13.9688H16.3203L15.9439 17.6122H16.0291C16.2848 17.2524 16.6707 16.9541 17.1868 16.7173C17.7029 16.4806 18.2805 16.3622 18.9197 16.3622C19.7957 16.3622 20.5769 16.5682 21.2635 16.9801C21.95 17.392 22.4922 17.9579 22.8899 18.6776C23.2876 19.3925 23.4841 20.2164 23.4794 21.1491C23.4841 22.1293 23.2569 23.0005 22.7976 23.7628C22.343 24.5204 21.7062 25.117 20.8871 25.5526C20.0727 25.9834 19.1257 26.1989 18.0462 26.1989Z" fill="#FB2576"/>
</svg>
