<svg width="32" height="18" viewBox="0 0 32 18" fill="none" xmlns="http://www.w3.org/2000/svg">
<path d="M23.2727 -0.000444412C25.697 -0.000444412 27.7576 0.848041 29.4545 2.54501C31.1515 4.24198 32 6.30259 32 8.72683C32 11.1511 31.1515 13.2117 29.4545 14.9086C27.7576 16.6056 25.697 17.4541 23.2727 17.4541L8.72727 17.4541C6.30303 17.4541 4.24242 16.6056 2.54545 14.9086C0.848484 13.2117 -9.53674e-07 11.1511 -9.53674e-07 8.72683C-9.53674e-07 6.30259 0.848484 4.24198 2.54545 2.54501C4.24242 0.848041 6.30303 -0.000444412 8.72727 -0.000444412L23.2727 -0.000444412ZM23.2727 2.90865L8.72727 2.90865C7.12727 2.90865 5.75757 3.47834 4.61818 4.61774C3.47879 5.75713 2.90909 7.12683 2.90909 8.72683C2.90909 10.3268 3.47879 11.6965 4.61818 12.8359C5.75757 13.9753 7.12727 14.545 8.72727 14.545L23.2727 14.545C24.8727 14.545 26.2424 13.9753 27.3818 12.8359C28.5212 11.6965 29.0909 10.3268 29.0909 8.72683C29.0909 7.12683 28.5212 5.75713 27.3818 4.61774C26.2424 3.47834 24.8727 2.90865 23.2727 2.90865ZM8.72727 4.36319C7.51515 4.36319 6.48485 4.78743 5.63636 5.63592C4.78788 6.4844 4.36364 7.51471 4.36364 8.72683C4.36364 9.93895 4.78788 10.9693 5.63636 11.8177C6.48485 12.6662 7.51515 13.0905 8.72727 13.0905C9.93939 13.0905 10.9697 12.6662 11.8182 11.8177C12.6667 10.9693 13.0909 9.93895 13.0909 8.72683C13.0909 7.51471 12.6667 6.4844 11.8182 5.63592C10.9697 4.78743 9.93939 4.36319 8.72727 4.36319Z" fill="#FB2576"/>
</svg>
