<svg width="32" height="32" viewBox="0 0 32 32" fill="none" xmlns="http://www.w3.org/2000/svg">
<path d="M13.4431 22.2749L7.27148 16.1018L9.32821 14.0451L13.4431 18.1585L21.67 9.93018L23.7282 11.9884L13.4431 22.2749Z" fill="#FB2576"/>
<path fill-rule="evenodd" clip-rule="evenodd" d="M0 16C0 7.16364 7.16364 0 16 0C24.8364 0 32 7.16364 32 16C32 24.8364 24.8364 32 16 32C7.16364 32 0 24.8364 0 16ZM16 29.0909C14.2809 29.0909 12.5786 28.7523 10.9903 28.0944C9.40206 27.4365 7.95893 26.4723 6.74333 25.2567C5.52773 24.0411 4.56346 22.5979 3.90558 21.0097C3.2477 19.4214 2.90909 17.7191 2.90909 16C2.90909 14.2809 3.2477 12.5786 3.90558 10.9903C4.56346 9.40206 5.52773 7.95893 6.74333 6.74333C7.95893 5.52773 9.40206 4.56346 10.9903 3.90558C12.5786 3.2477 14.2809 2.90909 16 2.90909C19.4719 2.90909 22.8016 4.28831 25.2567 6.74333C27.7117 9.19835 29.0909 12.5281 29.0909 16C29.0909 19.4719 27.7117 22.8016 25.2567 25.2567C22.8016 27.7117 19.4719 29.0909 16 29.0909Z" fill="#FB2576"/>
</svg>
