<svg width="32" height="32" viewBox="0 0 32 32" fill="none" xmlns="http://www.w3.org/2000/svg">
<path d="M8.88889 28.4444C7.4744 28.4444 6.11785 27.8825 5.11765 26.8823C4.11746 25.8822 3.55556 24.5256 3.55556 23.1111V8.88889C3.55556 7.4744 4.11746 6.11785 5.11765 5.11765C6.11785 4.11746 7.4744 3.55556 8.88889 3.55556C9.36038 3.55556 9.81257 3.36825 10.146 3.03486C10.4794 2.70146 10.6667 2.24927 10.6667 1.77778C10.6667 1.30628 10.4794 0.854097 10.146 0.520699C9.81257 0.187301 9.36038 0 8.88889 0C6.53141 0 4.27049 0.936505 2.6035 2.6035C0.936505 4.27049 0 6.53141 0 8.88889V23.1111C0 25.4686 0.936505 27.7295 2.6035 29.3965C4.27049 31.0635 6.53141 32 8.88889 32C9.36038 32 9.81257 31.8127 10.146 31.4793C10.4794 31.1459 10.6667 30.6937 10.6667 30.2222C10.6667 29.7507 10.4794 29.2985 10.146 28.9651C9.81257 28.6317 9.36038 28.4444 8.88889 28.4444ZM22.5956 22.5956C22.7622 22.4303 22.8944 22.2337 22.9847 22.017C23.075 21.8004 23.1214 21.568 23.1214 21.3333C23.1214 21.0986 23.075 20.8663 22.9847 20.6496C22.8944 20.433 22.7622 20.2364 22.5956 20.0711L18.5067 16L22.5956 11.9289C22.9303 11.5941 23.1184 11.1401 23.1184 10.6667C23.1184 10.1932 22.9303 9.73921 22.5956 9.40444C22.2608 9.06968 21.8068 8.88161 21.3333 8.88161C20.8599 8.88161 20.4059 9.06968 20.0711 9.40444L16 13.4933L11.9289 9.40444C11.5941 9.06968 11.1401 8.88161 10.6667 8.88161C10.1932 8.88161 9.73921 9.06968 9.40444 9.40444C9.06968 9.73921 8.88161 10.1932 8.88161 10.6667C8.88161 11.1401 9.06968 11.5941 9.40444 11.9289L13.4933 16L9.40444 20.0711C9.23782 20.2364 9.10556 20.433 9.0153 20.6496C8.92505 20.8663 8.87858 21.0986 8.87858 21.3333C8.87858 21.568 8.92505 21.8004 9.0153 22.017C9.10556 22.2337 9.23782 22.4303 9.40444 22.5956C9.56971 22.7622 9.76634 22.8944 9.98297 22.9847C10.1996 23.075 10.432 23.1214 10.6667 23.1214C10.9014 23.1214 11.1337 23.075 11.3504 22.9847C11.567 22.8944 11.7636 22.7622 11.9289 22.5956L16 18.5067L20.0711 22.5956C20.2364 22.7622 20.433 22.8944 20.6496 22.9847C20.8663 23.075 21.0986 23.1214 21.3333 23.1214C21.568 23.1214 21.8004 23.075 22.017 22.9847C22.2337 22.8944 22.4303 22.7622 22.5956 22.5956ZM23.1111 0C22.6396 0 22.1874 0.187301 21.854 0.520699C21.5206 0.854097 21.3333 1.30628 21.3333 1.77778C21.3333 2.24927 21.5206 2.70146 21.854 3.03486C22.1874 3.36825 22.6396 3.55556 23.1111 3.55556C24.5256 3.55556 25.8822 4.11746 26.8823 5.11765C27.8825 6.11785 28.4444 7.4744 28.4444 8.88889V23.1111C28.4444 24.5256 27.8825 25.8822 26.8823 26.8823C25.8822 27.8825 24.5256 28.4444 23.1111 28.4444C22.6396 28.4444 22.1874 28.6317 21.854 28.9651C21.5206 29.2985 21.3333 29.7507 21.3333 30.2222C21.3333 30.6937 21.5206 31.1459 21.854 31.4793C22.1874 31.8127 22.6396 32 23.1111 32C25.4686 32 27.7295 31.0635 29.3965 29.3965C31.0635 27.7295 32 25.4686 32 23.1111V8.88889C32 6.53141 31.0635 4.27049 29.3965 2.6035C27.7295 0.936505 25.4686 0 23.1111 0Z" fill="#FB2576"/>
</svg>
