<svg width="32" height="32" viewBox="0 0 32 32" fill="none" xmlns="http://www.w3.org/2000/svg">
<path d="M4 0C2.93913 0 1.92172 0.401359 1.17157 1.11578C0.421427 1.83021 0 2.79918 0 3.80952L0 26.6667C0 27.677 0.421427 28.646 1.17157 29.3604C1.92172 30.0748 2.93913 30.4762 4 30.4762H15.696C15.0097 29.7964 14.429 29.0267 13.9712 28.1905H4C3.57565 28.1905 3.16869 28.0299 2.86863 27.7442C2.56857 27.4584 2.4 27.0708 2.4 26.6667H13.3008C13.0502 25.925 12.8923 25.1578 12.8304 24.381H2.4V3.80952C2.4 3.40538 2.56857 3.0178 2.86863 2.73203C3.16869 2.44626 3.57565 2.28571 4 2.28571H22.4C22.8243 2.28571 23.2313 2.44626 23.5314 2.73203C23.8314 3.0178 24 3.40538 24 3.80952V13.7432C24.8341 13.8052 25.6341 13.9545 26.4 14.1912V3.80952C26.4 2.79918 25.9786 1.83021 25.2284 1.11578C24.4783 0.401359 23.4609 0 22.4 0L4 0ZM32 23.619C32 21.3963 31.0729 19.2646 29.4225 17.6928C27.7722 16.1211 25.5339 15.2381 23.2 15.2381C20.8661 15.2381 18.6278 16.1211 16.9775 17.6928C15.3271 19.2646 14.4 21.3963 14.4 23.619C14.4 25.8418 15.3271 27.9735 16.9775 29.5453C18.6278 31.117 20.8661 32 23.2 32C25.5339 32 27.7722 31.117 29.4225 29.5453C31.0729 27.9735 32 25.8418 32 23.619ZM22.2624 19.9573L26.752 22.7611C26.8917 22.8465 27.0011 22.9597 27.08 23.101C27.16 23.2391 27.2 23.3905 27.2 23.555C27.2002 23.713 27.1607 23.8687 27.0848 24.0091C27.0116 24.1477 26.9026 24.2662 26.768 24.3535L22.2768 27.2716C22.199 27.3223 22.1139 27.3619 22.024 27.389C21.8161 27.4523 21.5908 27.4399 21.392 27.3539C21.2776 27.3024 21.1732 27.2329 21.0832 27.1482C20.9961 27.0587 20.9257 26.9556 20.8752 26.8434C20.8247 26.7291 20.7991 26.6063 20.8 26.4823V20.7558C20.7988 20.5724 20.8536 20.3926 20.9579 20.2383C21.0622 20.0841 21.2114 19.9621 21.3872 19.8872C21.5266 19.8247 21.6808 19.7981 21.8344 19.8101C21.988 19.8222 22.1356 19.8724 22.2624 19.9558M4.8 6.09524C4.8 5.6911 4.96857 5.30351 5.26863 5.01774C5.56869 4.73197 5.97565 4.57143 6.4 4.57143H19.2C19.6243 4.57143 20.0313 4.73197 20.3314 5.01774C20.6314 5.30351 20.8 5.6911 20.8 6.09524V9.14286C20.8 9.547 20.6314 9.93458 20.3314 10.2204C20.0313 10.5061 19.6243 10.6667 19.2 10.6667H6.4C5.97565 10.6667 5.56869 10.5061 5.26863 10.2204C4.96857 9.93458 4.8 9.547 4.8 9.14286V6.09524ZM7.2 8.38095H18.4V6.85714H7.2V8.38095Z" fill="#FB2576"/>
</svg>
