<svg width="41" height="33" viewBox="0 0 41 33" fill="none" xmlns="http://www.w3.org/2000/svg">
<path d="M4.66602 0.333496L8.66601 8.3335H14.666L10.666 0.333496H14.666L18.666 8.3335H24.666L20.666 0.333496H24.666L28.666 8.3335H34.666L30.666 0.333496H36.666C37.766 0.333496 38.708 0.725496 39.492 1.5095C40.276 2.2935 40.6673 3.23483 40.666 4.3335V28.3335C40.666 29.4335 40.2747 30.3755 39.492 31.1595C38.7093 31.9435 37.7673 32.3348 36.666 32.3335H4.66602C3.56602 32.3335 2.62468 31.9422 1.84202 31.1595C1.05935 30.3768 0.667349 29.4348 0.666016 28.3335V4.3335C0.666016 3.2335 1.05802 2.29216 1.84202 1.5095C2.62602 0.726829 3.56735 0.334829 4.66602 0.333496ZM4.66602 12.3335V28.3335H36.666V12.3335H4.66602Z" fill="#FB2576"/>
</svg>
