<svg width="32" height="18" viewBox="0 0 32 18" fill="none" xmlns="http://www.w3.org/2000/svg">
<path d="M8.72727 17.4545C6.30303 17.4545 4.24242 16.6061 2.54545 14.9091C0.848485 13.2121 0 11.1515 0 8.72727C0 6.30303 0.848485 4.24242 2.54545 2.54545C4.24242 0.848485 6.30303 0 8.72727 0H23.2727C25.697 0 27.7576 0.848485 29.4545 2.54545C31.1515 4.24242 32 6.30303 32 8.72727C32 11.1515 31.1515 13.2121 29.4545 14.9091C27.7576 16.6061 25.697 17.4545 23.2727 17.4545H8.72727ZM8.72727 14.5455H23.2727C24.8727 14.5455 26.2424 13.9758 27.3818 12.8364C28.5212 11.697 29.0909 10.3273 29.0909 8.72727C29.0909 7.12727 28.5212 5.75758 27.3818 4.61818C26.2424 3.47879 24.8727 2.90909 23.2727 2.90909H8.72727C7.12727 2.90909 5.75758 3.47879 4.61818 4.61818C3.47879 5.75758 2.90909 7.12727 2.90909 8.72727C2.90909 10.3273 3.47879 11.697 4.61818 12.8364C5.75758 13.9758 7.12727 14.5455 8.72727 14.5455ZM23.2727 13.0909C24.4848 13.0909 25.5152 12.6667 26.3636 11.8182C27.2121 10.9697 27.6364 9.93939 27.6364 8.72727C27.6364 7.51515 27.2121 6.48485 26.3636 5.63636C25.5152 4.78788 24.4848 4.36364 23.2727 4.36364C22.0606 4.36364 21.0303 4.78788 20.1818 5.63636C19.3333 6.48485 18.9091 7.51515 18.9091 8.72727C18.9091 9.93939 19.3333 10.9697 20.1818 11.8182C21.0303 12.6667 22.0606 13.0909 23.2727 13.0909Z" fill="#FB2576"/>
</svg>
