<svg width="28" height="28" viewBox="0 0 28 28" fill="none" xmlns="http://www.w3.org/2000/svg">
<path d="M14 22C16.1217 22 18.1566 21.1571 19.6569 19.6569C21.1571 18.1566 22 16.1217 22 14C22 11.8783 21.1571 9.84344 19.6569 8.34315C18.1566 6.84285 16.1217 6 14 6C11.8783 6 9.84344 6.84285 8.34315 8.34315C6.84285 9.84344 6 11.8783 6 14C6 16.1217 6.84285 18.1566 8.34315 19.6569C9.84344 21.1571 11.8783 22 14 22ZM14 0C10.287 0 6.72601 1.475 4.1005 4.1005C1.475 6.72601 0 10.287 0 14C0 17.713 1.475 21.274 4.1005 23.8995C6.72601 26.525 10.287 28 14 28C17.713 28 21.274 26.525 23.8995 23.8995C26.525 21.274 28 17.713 28 14C28 10.287 26.525 6.72601 23.8995 4.1005C21.274 1.475 17.713 0 14 0ZM2 14C2 12.4241 2.31039 10.8637 2.91345 9.4078C3.5165 7.95189 4.40042 6.62902 5.51472 5.51472C6.62902 4.40042 7.95189 3.5165 9.4078 2.91345C10.8637 2.31039 12.4241 2 14 2C15.5759 2 17.1363 2.31039 18.5922 2.91345C20.0481 3.5165 21.371 4.40042 22.4853 5.51472C23.5996 6.62902 24.4835 7.95189 25.0866 9.4078C25.6896 10.8637 26 12.4241 26 14C26 17.1826 24.7357 20.2348 22.4853 22.4853C20.2348 24.7357 17.1826 26 14 26C10.8174 26 7.76516 24.7357 5.51472 22.4853C3.26428 20.2348 2 17.1826 2 14Z" fill="#FB2576"/>
</svg>
