<svg width="33" height="32" viewBox="0 0 33 32" fill="none" xmlns="http://www.w3.org/2000/svg">
<path d="M0.375 4.57143C0.375 3.35901 0.856631 2.19625 1.71394 1.33894C2.57125 0.481631 3.73401 0 4.94643 0L24.0984 0C25.3107 0.000258914 26.4733 0.48206 27.3304 1.33943L31.0356 5.04457C31.8929 5.90168 32.3747 7.06425 32.375 8.27657V27.4286C32.375 28.641 31.8934 29.8038 31.0361 30.6611C30.1788 31.5184 29.016 32 27.8036 32H4.94643C3.73401 32 2.57125 31.5184 1.71394 30.6611C0.856631 29.8038 0.375 28.641 0.375 27.4286V4.57143ZM4.94643 2.28571C4.34022 2.28571 3.75884 2.52653 3.33019 2.95519C2.90153 3.38384 2.66071 3.96522 2.66071 4.57143V27.4286C2.66071 28.0348 2.90153 28.6162 3.33019 29.0448C3.75884 29.4735 4.34022 29.7143 4.94643 29.7143V19.4286C4.94643 18.5193 5.30765 17.6472 5.95063 17.0042C6.59362 16.3612 7.46569 16 8.375 16H24.375C25.2843 16 26.1564 16.3612 26.7994 17.0042C27.4423 17.6472 27.8036 18.5193 27.8036 19.4286V29.7143C28.4098 29.7143 28.9912 29.4735 29.4198 29.0448C29.8485 28.6162 30.0893 28.0348 30.0893 27.4286V8.27657C30.0892 7.67041 29.8483 7.08913 29.4196 6.66057L25.7144 2.95543C25.2859 2.52674 24.7046 2.28584 24.0984 2.28571H23.2321V8C23.2321 8.90931 22.8709 9.78139 22.2279 10.4244C21.585 11.0673 20.7129 11.4286 19.8036 11.4286H10.6607C9.7514 11.4286 8.87933 11.0673 8.23635 10.4244C7.59337 9.78139 7.23214 8.90931 7.23214 8V2.28571H4.94643ZM9.51786 2.28571V8C9.51786 8.3031 9.63827 8.59379 9.85259 8.80812C10.0669 9.02245 10.3576 9.14286 10.6607 9.14286H19.8036C20.1067 9.14286 20.3974 9.02245 20.6117 8.80812C20.826 8.59379 20.9464 8.3031 20.9464 8V2.28571H9.51786ZM25.5179 29.7143V19.4286C25.5179 19.1255 25.3975 18.8348 25.1831 18.6204C24.9688 18.4061 24.6781 18.2857 24.375 18.2857H8.375C8.0719 18.2857 7.78121 18.4061 7.56688 18.6204C7.35255 18.8348 7.23214 19.1255 7.23214 19.4286V29.7143H25.5179Z" fill="#FB2576"/>
</svg>
