<svg width="32" height="32" viewBox="0 0 32 32" fill="none" xmlns="http://www.w3.org/2000/svg">
<path d="M16 0C7.16429 0 0 7.16429 0 16C0 24.8357 7.16429 32 16 32C24.8357 32 32 24.8357 32 16C32 7.16429 24.8357 0 16 0ZM16 29.2857C8.66429 29.2857 2.71429 23.3357 2.71429 16C2.71429 12.8214 3.83214 9.9 5.69643 7.61429L24.3857 26.3036C22.1 28.1679 19.1786 29.2857 16 29.2857ZM26.3036 24.3857L7.61429 5.69643C9.9 3.83214 12.8214 2.71429 16 2.71429C23.3357 2.71429 29.2857 8.66429 29.2857 16C29.2857 19.1786 28.1679 22.1 26.3036 24.3857Z" fill="#FB2576"/>
</svg>
